<svg xmlns="http://www.w3.org/2000/svg" viewBox="0 0 407.19 323.69"><defs><style>.cls-1{fill:#ff5252;}.cls-2{fill:#007999;}.cls-3{fill:#fff;}.cls-4{fill:#bf3d3d;}.cls-5{fill:#00accc;}.cls-6{fill:#006f85;}</style></defs><title>Asset 1</title><g id="Layer_2" data-name="Layer 2"><g id="Layer_1-2" data-name="Layer 1"><path class="cls-1" d="M260,0c-54.23,0-98.2,37.53-98.2,83.82q0,2,.12,4v0c1.31,23.52,14,44.49,33.43,59,17.27,12.91,39.9,20.73,64.65,20.73,24.53,0,46.95-7.67,64.16-20.36,19.73-14.54,32.6-35.68,33.92-59.39v0q.12-2,.12-4C358.21,37.53,314.25,0,260,0Zm-1.7,138.14c-11.2,0-20.28-4.08-20.28-9.1s9.08-9.09,20.28-9.09S278.59,124,278.59,129,269.51,138.14,258.31,138.14Zm2.1-46.86c-43.26,0-79.32-3.65-79.32-28.37s35.07-44.75,78.32-44.75,78.33,20,78.33,44.75S303.66,91.28,260.41,91.28Z"/><path class="cls-2" d="M278.59,129c0,5-9.08,9.1-20.28,9.1S238,134.06,238,129s9.08-9.09,20.28-9.09S278.59,124,278.59,129Z"/><path class="cls-3" d="M190.33,150.9c-1-.87-2-1.76-3-2.67A15.77,15.77,0,0,1,190.33,150.9Z"/><path class="cls-3" d="M332.64,148.26c-.6.56-1.2,1.1-1.82,1.65A15.85,15.85,0,0,1,332.64,148.26Z"/><path class="cls-1" d="M368.84,243.22c-4.54-24.87-11.92-47.25-22.15-65.84a16.38,16.38,0,0,1-3.86.46A16.54,16.54,0,0,1,329,152.24l-.38-.42c-17.7,14.75-41.9,23.84-68.59,23.84-27,0-51.51-9.32-69.26-24.4l-.06.06a16.56,16.56,0,0,1-19.9,25.44c-20.47,33.26-31.67,78.88-31.67,129.31q0,8.91.47,17.62H373.91q.36-8.32.36-16.85A356.37,356.37,0,0,0,368.84,243.22Zm-35.93-10.67c-2.37,12.8-12.58,21.24-68.79,51.81-21.87,11.89-48.47,20.68-62,27.6,11.23-9.55,31.55-22.46,30.57-38.22-.7-11.3-12.64-25-22.93-38.64-15.33-20.3-.1-47.8,21.66-45.86,23.78,2.12,30.3,9.75,38.21,25.48,8-18.1,25.21-27.8,39.49-24.63C326.8,194,335.85,216.7,332.91,232.55Z"/><path class="cls-4" d="M194.44,161.8a16.57,16.57,0,0,1-23.65,15,16.59,16.59,0,0,1-9.44-15c0-.45,0-.9.06-1.34a16.55,16.55,0,0,1,25.91-12.26l0,0c1,.91,2,1.8,3,2.67q.19.21.36.42A16.41,16.41,0,0,1,194.44,161.8Z"/><path class="cls-3" d="M190.33,150.9c-1-.87-2-1.76-3-2.67A15.77,15.77,0,0,1,190.33,150.9Z"/><path class="cls-4" d="M107.59,242.53a15.81,15.81,0,0,1-.37,3.46,16.55,16.55,0,0,1-32.73-3.46,16.36,16.36,0,0,1,1.19-6.16A16.55,16.55,0,0,1,91,226a18.13,18.13,0,0,1,4.29.56A16.56,16.56,0,0,1,107.59,242.53Z"/><path class="cls-4" d="M359.37,161.29a14.43,14.43,0,0,1-.1,1.75h0a16.5,16.5,0,0,1-8.67,12.85,15.62,15.62,0,0,1-3.91,1.48,16.38,16.38,0,0,1-3.86.46A16.54,16.54,0,0,1,329,152.24a15.54,15.54,0,0,1,1.82-2.31l0,0c.62-.55,1.22-1.09,1.82-1.65a0,0,0,0,1,0,0,16.55,16.55,0,0,1,26.71,13Z"/><path class="cls-3" d="M332.64,148.26c-.6.56-1.2,1.1-1.82,1.65A15.85,15.85,0,0,1,332.64,148.26Z"/><path class="cls-1" d="M107.22,246a15.81,15.81,0,0,0,.37-3.46,16.56,16.56,0,0,0-12.26-16l66.08-66.08c0,.44-.06.89-.06,1.34a16.52,16.52,0,0,0,5,11.89Z"/><path class="cls-1" d="M93,226.11a14.57,14.57,0,0,0-2-.13,16.55,16.55,0,0,0-15.36,10.39L42.3,139.44A25.53,25.53,0,0,0,56,139.2a25,25,0,0,0,8.33-4.32Z"/><path class="cls-4" d="M403.8,239.42A16.57,16.57,0,0,1,387.25,256a16.77,16.77,0,0,1-3.35-.34,16.57,16.57,0,0,1-12.85-12.87,16.74,16.74,0,0,1-.34-3.34,16.39,16.39,0,0,1,2.63-8.94h0a16.52,16.52,0,0,1,13.91-7.6l.79,0A16.55,16.55,0,0,1,403.8,239.42Z"/><path class="cls-1" d="M388,222.89l-.79,0a16.52,16.52,0,0,0-13.91,7.6L350.6,175.9a16.5,16.5,0,0,0,8.67-12.85Z"/><path class="cls-1" d="M407.19,323.69H388.76l-4.86-68.06a16.77,16.77,0,0,0,3.35.34A16.39,16.39,0,0,0,397,252.8Z"/><path class="cls-1" d="M63.08,131.05a25.32,25.32,0,0,1-22.2,4.28c-10.44-2.79-19.7-11.79-23.49-24.23a2.25,2.25,0,0,1-.08-.24c-1.63-5.46-1.56-9.54-.25-12.71,3-7.3,12.64-9.73,23.38-12.93,9.91-3,18.36-5.86,24.56-2.73a0,0,0,0,1,0,0c3.42,1.72,6.16,5.3,8.08,11.72A36.75,36.75,0,0,1,74,98C76.62,111.22,72.15,124.11,63.08,131.05Z"/><path class="cls-1" d="M24.94,88.91l-2.46,1A3.19,3.19,0,0,1,18.3,88.2l-4.05-9.77A3.19,3.19,0,0,1,16,74.25l2.46-1A3.2,3.2,0,0,1,22.62,75l4.05,9.77A3.19,3.19,0,0,1,24.94,88.91Z"/><path class="cls-1" d="M79.86,75.27l-6.41,8.41a3.19,3.19,0,0,1-4.48.61l-2.12-1.62a3.19,3.19,0,0,1-.61-4.48l6.42-8.42a3.2,3.2,0,0,1,4.48-.6l2.12,1.62A3.18,3.18,0,0,1,79.86,75.27Z"/><path class="cls-1" d="M86.61,55.53,84.35,65.86a3.21,3.21,0,0,1-3.81,2.45l-2.6-.57a3.19,3.19,0,0,1-2.44-3.81l2.25-10.34a3.21,3.21,0,0,1,3.81-2.44l2.61.57A3.2,3.2,0,0,1,86.61,55.53Z"/><path class="cls-1" d="M17.94,71.91l-2.46,1A3.19,3.19,0,0,1,11.3,71.2L7.25,61.43A3.19,3.19,0,0,1,9,57.25l2.46-1A3.2,3.2,0,0,1,15.62,58l4.05,9.77A3.19,3.19,0,0,1,17.94,71.91Z"/><path class="cls-1" d="M10.94,54.91l-2.46,1A3.19,3.19,0,0,1,4.3,54.2l-4-9.77A3.19,3.19,0,0,1,2,40.25l2.46-1A3.2,3.2,0,0,1,8.62,41l4.05,9.77A3.19,3.19,0,0,1,10.94,54.91Z"/><path class="cls-1" d="M35.27,85.28l-2.55.8a3.2,3.2,0,0,1-4-2.1L25.55,73.89a3.2,3.2,0,0,1,2.1-4l2.54-.8a3.2,3.2,0,0,1,4,2.1l3.16,10.09A3.2,3.2,0,0,1,35.27,85.28Z"/><path class="cls-1" d="M29.27,68.28l-2.55.8a3.2,3.2,0,0,1-4-2.1L19.55,56.89a3.2,3.2,0,0,1,2.1-4l2.54-.8a3.2,3.2,0,0,1,4,2.1l3.16,10.09A3.2,3.2,0,0,1,29.27,68.28Z"/><path class="cls-1" d="M23.27,51.28l-2.55.8a3.2,3.2,0,0,1-4-2.1L13.55,39.89a3.2,3.2,0,0,1,2.1-4l2.54-.8a3.2,3.2,0,0,1,4,2.1l3.16,10.09A3.2,3.2,0,0,1,23.27,51.28Z"/><path class="cls-1" d="M47.21,81.31l-2.55.78a3.21,3.21,0,0,1-4-2.13L37.58,69.84a3.2,3.2,0,0,1,2.13-4l2.55-.78a3.2,3.2,0,0,1,4,2.13l3.08,10.12A3.19,3.19,0,0,1,47.21,81.31Z"/><path class="cls-1" d="M42.21,64.31l-2.55.78a3.21,3.21,0,0,1-4-2.13L32.58,52.84a3.2,3.2,0,0,1,2.13-4l2.55-.78a3.2,3.2,0,0,1,4,2.13l3.08,10.12A3.19,3.19,0,0,1,42.21,64.31Z"/><path class="cls-1" d="M37.21,47.31l-2.55.78a3.21,3.21,0,0,1-4-2.13L27.58,35.84a3.2,3.2,0,0,1,2.13-4l2.55-.78a3.2,3.2,0,0,1,4,2.13l3.08,10.12A3.19,3.19,0,0,1,37.21,47.31Z"/><path class="cls-1" d="M58.35,79.24l-2.53.83a3.2,3.2,0,0,1-4-2.06L48.51,68a3.19,3.19,0,0,1,2.05-4l2.54-.82a3.19,3.19,0,0,1,4,2.05L60.4,75.21A3.19,3.19,0,0,1,58.35,79.24Z"/><path class="cls-1" d="M52.58,62.59l-2.6.57a3.2,3.2,0,0,1-3.82-2.44L43.9,50.38a3.2,3.2,0,0,1,2.44-3.81l2.6-.57a3.21,3.21,0,0,1,3.81,2.44L55,58.78A3.21,3.21,0,0,1,52.58,62.59Z"/><path class="cls-1" d="M48.23,44.71l-2.62.46a3.2,3.2,0,0,1-3.71-2.6L40.08,32.15a3.2,3.2,0,0,1,2.6-3.7L45.31,28a3.19,3.19,0,0,1,3.7,2.6L50.83,41A3.19,3.19,0,0,1,48.23,44.71Z"/><path class="cls-5" d="M332.91,232.55c-2.37,12.8-12.58,21.24-68.79,51.81-21.87,11.89-48.47,20.68-62,27.6,11.23-9.55,31.55-22.46,30.57-38.22-.7-11.3-12.64-25-22.93-38.64-15.33-20.3-.1-47.8,21.66-45.86,23.78,2.12,30.3,9.75,38.21,25.48,8-18.1,25.21-27.8,39.49-24.63C326.8,194,335.85,216.7,332.91,232.55Z"/><path class="cls-6" d="M259.41,18.16c-43.25,0-78.32,20-78.32,44.75s36.06,28.37,79.32,28.37,77.33-3.65,77.33-28.37S302.67,18.16,259.41,18.16ZM220.1,67.51a10.14,10.14,0,1,1,10.14-10.14A10.14,10.14,0,0,1,220.1,67.51Zm75,0a10.14,10.14,0,1,1,10.14-10.14A10.14,10.14,0,0,1,295.1,67.51Z"/><circle class="cls-5" cx="220.1" cy="57.37" r="10.14" transform="translate(128.21 265.44) rotate(-80.78)"/><circle class="cls-5" cx="295.1" cy="57.37" r="10.14" transform="translate(191.2 339.47) rotate(-80.78)"/></g></g></svg>